<svg width="32" height="32" viewBox="0 0 32 32" fill="none" xmlns="http://www.w3.org/2000/svg"><g opacity="0.25"><path d="M14.0145 28.5C10.873 28.5 8.19226 26.9945 6.26431 24.1487C4.61863 21.7176 3.67578 18.4551 3.67578 15.1944C3.67578 12.1854 5.17359 9.17248 7.78516 6.92768C10.318 4.74818 13.6189 3.5 16.8431 3.5C23.3893 3.5 28.3244 8.35828 28.3244 14.7989C28.3244 21.2395 20.7009 28.4981 14.0126 28.4981L14.0145 28.5ZM16.8431 4.70785C10.583 4.70785 4.88363 9.70631 4.88363 15.1944C4.88363 18.2208 5.75159 21.2375 7.26477 23.4708C8.44573 25.2144 10.5753 27.2922 14.0145 27.2922C20.0154 27.2922 27.1185 20.5213 27.1185 14.7989C27.1185 12.0164 26.0949 9.46628 24.238 7.61514C22.3562 5.74096 19.7312 4.70785 16.845 4.70785H16.8431Z" fill="currentColor"></path></g><g opacity="0.54"><path d="M14.1469 27.252C7.85796 27.252 4.46484 21.0745 4.46484 15.2618C4.46484 9.44914 9.89153 4.75216 16.3168 4.75216H16.3283C19.3565 4.75216 22.1678 5.7699 24.2456 7.61912C26.3655 9.50483 27.5331 12.0914 27.5331 14.9027C27.5331 20.6731 20.4031 27.252 14.1488 27.252H14.1469ZM16.3264 5.96001H16.3168C10.5463 5.96001 5.67077 10.2211 5.67077 15.2637C5.67077 20.3064 8.64143 26.046 14.1469 26.046C19.6523 26.046 26.3233 20.0068 26.3233 14.9046C26.3233 12.4428 25.2998 10.1769 23.441 8.52357C21.5841 6.87214 19.057 5.96193 16.3264 5.96193V5.96001Z" fill="currentColor"></path></g><path d="M14.2912 25.9057C8.84149 25.9057 5.45605 21.9519 5.45605 15.5881C5.45605 9.92907 9.51167 6.12693 15.5471 6.12693C22.0491 6.12693 26.5906 9.85609 26.5906 15.1925C26.5906 17.9097 25.1408 20.6691 22.6098 22.7622C20.1961 24.7593 17.1639 25.9057 14.2893 25.9057H14.2912ZM15.549 7.33286C10.1511 7.33286 6.66391 10.5724 6.66391 15.5862C6.66391 21.2913 9.51551 24.6979 14.2912 24.6979C19.3147 24.6979 25.3846 20.4579 25.3846 15.1925C25.3846 12.8133 24.3842 10.8085 22.4927 9.39331C20.7165 8.06448 18.2508 7.33286 15.549 7.33286Z" fill="currentColor"></path><path d="M13.1177 10.1556H18.0317C19.8694 10.1556 21.3826 11.3327 21.3826 13.3643C21.3826 15.9413 19.3509 17.4891 16.8238 17.4891H14.2814L13.5575 21.6445H11.0938L13.1196 10.1556H13.1177ZM16.7105 15.5189C17.9664 15.5189 18.9477 14.8737 18.9477 13.5679C18.9477 12.5521 18.1584 12.1334 17.2866 12.1334H15.2262L14.629 15.515H16.7086V15.5208L16.7105 15.5189Z" fill="currentColor"></path></svg>