<svg width="24" height="24" viewBox="0 0 24 24" fill="none" xmlns="http://www.w3.org/2000/svg"><path d="M14.797 4.86968C15.0353 5.89878 15.9426 6.66542 17.026 6.66542C18.2908 6.66542 19.3162 5.621 19.3162 4.33271C19.3162 3.04441 18.2908 2 17.026 2C15.9201 2 14.9978 2.79835 14.783 3.86026C12.9309 4.06258 11.4846 5.66256 11.4846 7.60156C11.4846 7.60594 11.4846 7.60922 11.4846 7.61359C9.47038 7.69999 7.63114 8.28399 6.17091 9.20591C5.6287 8.77831 4.94797 8.52349 4.20927 8.52349C2.4366 8.52349 1 9.98677 1 11.7923C1 13.1025 1.75588 14.2311 2.84783 14.7528C2.95412 18.5477 7.01376 21.6 12.0075 21.6C17.0013 21.6 21.0663 18.5444 21.1672 14.7462C22.2506 14.2213 23 13.0959 23 11.7934C23 9.98786 21.5634 8.52458 19.7907 8.52458C19.0552 8.52458 18.3777 8.77721 17.8366 9.20154C16.3635 8.27305 14.5039 7.68905 12.4692 7.61141C12.4692 7.60812 12.4692 7.60594 12.4692 7.60266C12.4692 6.21375 13.4828 5.06106 14.797 4.87187V4.86968ZM6.04207 13.867C6.09575 12.6815 6.86881 11.7716 7.7675 11.7716C8.66618 11.7716 9.35334 12.7329 9.29966 13.9184C9.24597 15.1039 8.57491 15.5347 7.67516 15.5347C6.7754 15.5347 5.98838 15.0525 6.04207 13.867ZM16.2486 11.7716C17.1484 11.7716 17.9214 12.6815 17.974 13.867C18.0277 15.0525 17.2396 15.5347 16.3409 15.5347C15.4423 15.5347 14.7701 15.1049 14.7164 13.9184C14.6628 12.7329 15.3489 11.7716 16.2486 11.7716ZM15.1792 16.6098C15.3478 16.6273 15.4551 16.8055 15.3897 16.9652C14.8367 18.3115 13.5311 19.2575 12.0075 19.2575C10.4839 19.2575 9.1794 18.3115 8.62538 16.9652C8.55988 16.8055 8.66725 16.6273 8.83582 16.6098C9.82362 16.5081 10.8919 16.4523 12.0075 16.4523C13.1231 16.4523 14.1903 16.5081 15.1792 16.6098Z" fill="currentColor"></path></svg>